<svg width="2000" height="3000" viewBox="0 0 2000 3000" fill="none" xmlns="http://www.w3.org/2000/svg">
<g clip-path="url(#clip0_1_2)">
<rect width="2000" height="3000" fill="#34C700"/>
<path d="M1466.62 -185C1258.28 -1.62235 869.033 487.645 978.764 977.692C1115.93 1590.25 1489.95 1003.7 1499.85 1646.18C1509.74 2288.65 1042.4 1812.65 669.792 2132.58C371.709 2388.53 532.864 2898.17 650.703 3121" stroke="#5C5C5C" stroke-width="250"/>
<path d="M1476.86 -173.365L1488.49 -183.606L1468.01 -206.876L1456.37 -196.635L1476.86 -173.365ZM978.764 977.692L993.89 974.305L978.764 977.692ZM669.792 2132.58L659.695 2120.82L669.792 2132.58ZM664.405 3113.75C656.788 3099.35 648.973 3083.7 641.104 3066.96L613.049 3080.15C621.114 3097.31 629.145 3113.39 637.001 3128.25L664.405 3113.75ZM600.249 2970.36C588.336 2938.98 576.918 2905.62 566.534 2870.86L536.831 2879.74C547.44 2915.24 559.102 2949.31 571.266 2981.36L600.249 2970.36ZM540.366 2769.29C533.058 2735.41 527.063 2700.85 522.791 2666.06L492.022 2669.84C496.418 2705.64 502.577 2741.12 510.063 2775.82L540.366 2769.29ZM515.565 2561.92C515.131 2526.91 516.859 2492.17 521.151 2458.15L490.395 2454.27C485.905 2489.85 484.118 2526.03 484.567 2562.3L515.565 2561.92ZM542.609 2357.1C552.767 2324.23 566.036 2292.61 582.843 2262.69L555.816 2247.5C537.848 2279.49 523.742 2313.16 512.991 2347.95L542.609 2357.1ZM642.914 2179.97C654.324 2167.62 666.632 2155.72 679.89 2144.34L659.695 2120.82C645.532 2132.98 632.363 2145.71 620.141 2158.94L642.914 2179.97ZM679.89 2144.34C691.693 2134.21 703.581 2124.9 715.534 2116.37L697.519 2091.14C684.808 2100.22 672.193 2110.09 659.695 2120.82L679.89 2144.34ZM793.68 2071.1C821.94 2058.19 850.439 2048.57 878.969 2041.47L871.475 2011.38C841.27 2018.91 810.949 2029.13 780.799 2042.9L793.68 2071.1ZM968.628 2026.46C999.511 2023.5 1030.16 2022.53 1060.33 2022.53L1060.33 1991.53C1029.52 1991.53 997.831 1992.52 965.672 1995.6L968.628 2026.46ZM1153.2 2024.54C1185.72 2025.54 1217.43 2026.38 1247.48 2025.47L1246.53 1994.49C1217.57 1995.37 1186.75 1994.56 1154.16 1993.55L1153.2 2024.54ZM1343.29 2013.17C1376.08 2004.33 1405.9 1989.64 1431.15 1965.7L1409.83 1943.2C1389.04 1962.91 1364.12 1975.44 1335.21 1983.24L1343.29 2013.17ZM1484.77 1882.02C1494.93 1855.57 1502.64 1824.64 1507.8 1788.56L1477.11 1784.17C1472.21 1818.48 1464.99 1847.07 1455.83 1870.91L1484.77 1882.02ZM1515.17 1693.67C1515.54 1678.46 1515.6 1662.55 1515.34 1645.94L1484.35 1646.41C1484.6 1662.65 1484.54 1678.15 1484.18 1692.93L1515.17 1693.67ZM1515.34 1645.94C1515.08 1628.88 1514.56 1612.66 1513.8 1597.23L1482.84 1598.76C1483.58 1613.81 1484.09 1629.68 1484.35 1646.41L1515.34 1645.94ZM1504.43 1500.61C1498.42 1462.23 1490.06 1430.73 1479.55 1404.83L1450.83 1416.49C1460.22 1439.64 1468.06 1468.72 1473.8 1505.41L1504.43 1500.61ZM1418.79 1322.28C1389.43 1301.1 1355.91 1293.26 1322.46 1288.89L1318.44 1319.63C1350.17 1323.78 1377.55 1330.75 1400.65 1347.42L1418.79 1322.28ZM1227.98 1278.48C1198.9 1273.75 1170.58 1265.79 1143.63 1249.72L1127.75 1276.35C1159.19 1295.09 1191.64 1303.98 1223.01 1309.08L1227.98 1278.48ZM1079.12 1189.33C1063.67 1168.2 1048.84 1141.85 1035.04 1108.84L1006.44 1120.8C1021.01 1155.66 1036.98 1184.21 1054.09 1207.63L1079.12 1189.33ZM1005.25 1020.36C1001.31 1005.85 997.52 990.517 993.89 974.305L963.639 981.079C967.364 997.714 971.267 1013.5 975.338 1028.49L1005.25 1020.36ZM993.89 974.305C990.511 959.218 987.615 944.129 985.181 929.049L954.577 933.989C957.11 949.677 960.123 965.377 963.639 981.079L993.89 974.305ZM975.89 837.333C974.566 806.441 975.021 775.652 977.08 745.042L946.15 742.962C944.018 774.656 943.544 806.584 944.919 838.66L975.89 837.333ZM987.991 653.241C993.149 622.78 999.762 592.585 1007.65 562.74L977.678 554.82C969.566 585.519 962.749 616.629 957.426 648.064L987.991 653.241ZM1035.03 474.103C1045.37 444.821 1056.81 415.987 1069.16 387.687L1040.75 375.281C1028.11 404.227 1016.4 433.757 1005.8 463.784L1035.03 474.103ZM1109.2 303.711C1123.57 275.883 1138.71 248.717 1154.4 222.307L1127.75 206.472C1111.76 233.38 1096.33 261.082 1081.65 289.483L1109.2 303.711ZM1204.18 143.581C1221.88 117.201 1239.96 91.7971 1258.18 67.4824L1233.37 48.895C1214.84 73.6224 1196.44 99.465 1178.43 126.31L1204.18 143.581ZM1315.98 -5.70189C1336.8 -30.7053 1357.43 -54.1195 1377.5 -75.7753L1354.77 -96.8504C1334.32 -74.7927 1313.32 -50.9642 1292.16 -25.534L1315.98 -5.70189ZM1442.8 -142.126C1454.6 -153.372 1465.99 -163.799 1476.86 -173.365L1456.37 -196.635C1445.18 -186.785 1433.5 -176.081 1421.41 -164.571L1442.8 -142.126Z" fill="#C3C3C3"/>
</g>
<defs>
<clipPath id="clip0_1_2">
<rect width="2000" height="3000" fill="white"/>
</clipPath>
</defs>
</svg>
