<svg width="400" height="400" viewBox="0 0 400 400" fill="none" xmlns="http://www.w3.org/2000/svg">
<path d="M115.833 342.5V366.25H139.583V358.333H266.25V366.25H290V342.5H282.083V203.958L274.167 128.75H266.25V81.25C260.972 62.7778 240.917 10 202.917 10C164.917 10 144.861 62.7778 139.583 81.25V128.75H131.667L123.75 203.958V342.5H115.833Z" fill="url(#paint0_linear_4_25)"/>
<path d="M115.833 49.5833V128.75H131.667H139.583V81.25V49.5833H115.833Z" fill="url(#paint1_linear_4_25)"/>
<path d="M290 128.75V49.5833H266.25V81.25V128.75H274.167H290Z" fill="url(#paint2_linear_4_25)"/>
<path d="M100 263.333V342.5H115.833H123.75V203.958L115.833 263.333H100Z" fill="url(#paint3_linear_4_25)"/>
<path d="M305.833 342.5V263.333H290L282.083 203.958V342.5H290H305.833Z" fill="url(#paint4_linear_4_25)"/>
<path d="M139.583 366.25V390H266.25V366.25V358.333H139.583V366.25Z" fill="url(#paint5_linear_4_25)"/>
<path d="M131.667 128.75H115.833V49.5833H139.583V81.25M131.667 128.75L123.75 203.958M131.667 128.75H139.583V81.25M274.167 128.75H290V49.5833H266.25V81.25M274.167 128.75L282.083 203.958M274.167 128.75H266.25V81.25M115.833 342.5H100V263.333H115.833L123.75 203.958M115.833 342.5V366.25H139.583M115.833 342.5H123.75V203.958M290 342.5V366.25H266.25M290 342.5H305.833V263.333H290L282.083 203.958M290 342.5H282.083V203.958M139.583 366.25V390H266.25V366.25M139.583 366.25V358.333H266.25V366.25M139.583 81.25C144.861 62.7778 164.917 10 202.917 10C240.917 10 260.972 62.7778 266.25 81.25" stroke="black" stroke-width="15.8333"/>
<path d="M139.583 366.25V390H266.25V366.25V358.333H139.583V366.25Z" fill="url(#paint6_linear_4_25)"/>
<path d="M131.667 128.75H115.833V49.5833H139.583V81.25M131.667 128.75L123.75 203.958M131.667 128.75H139.583V81.25M274.167 128.75H290V49.5833H266.25V81.25M274.167 128.75L282.083 203.958M274.167 128.75H266.25V81.25M115.833 342.5H100V263.333H115.833L123.75 203.958M115.833 342.5V366.25H139.583M115.833 342.5H123.75V203.958M290 342.5V366.25H266.25M290 342.5H305.833V263.333H290L282.083 203.958M290 342.5H282.083V203.958M139.583 366.25V390H266.25V366.25M139.583 366.25V358.333H266.25V366.25M139.583 81.25C144.861 62.7778 164.917 10 202.917 10C240.917 10 260.972 62.7778 266.25 81.25" stroke="black" stroke-width="15.8333"/>
<path d="M266.25 120.832C266.25 155.81 237.895 184.166 202.917 184.166C167.939 184.166 139.583 155.81 139.583 120.832C139.583 85.8544 165.232 17.9158 202.917 17.9158C240.602 17.9158 266.25 85.8544 266.25 120.832Z" fill="url(#paint7_radial_4_25)"/>
<path d="M242.499 104.999C242.499 126.86 224.777 144.582 202.915 144.582C181.054 144.582 163.332 126.86 163.332 104.999C163.332 83.1376 181.054 65.4155 202.915 65.4155C224.777 65.4155 242.499 83.1376 242.499 104.999Z" fill="url(#paint8_radial_4_25)"/>
<path d="M185.816 118.095L208.695 118.095L210.041 111.287C208.827 111.867 207.507 112.342 206.082 112.712C204.604 113.134 202.863 113.345 200.857 113.345C197.691 113.345 195.052 112.896 192.941 111.999C190.829 111.102 189.141 109.914 187.874 108.437C186.554 106.959 185.631 105.296 185.103 103.449C184.522 101.655 184.232 99.8601 184.232 98.0657C184.232 95.2157 184.839 92.5768 186.053 90.149C187.214 87.7212 188.903 85.6101 191.12 83.8157C193.284 82.0212 195.949 80.6226 199.116 79.6199C202.282 78.6171 205.845 78.1157 209.803 78.1157C211.334 78.1157 212.811 78.2212 214.236 78.4324C215.661 78.5907 217.06 78.9074 218.432 79.3824C219.752 79.9101 221.097 80.5962 222.47 81.4407C223.789 82.2851 225.161 83.3935 226.586 84.7657L224.291 95.7699L211.782 95.7699C211.888 94.9782 211.967 94.2921 212.02 93.7115C212.072 93.131 212.099 92.2074 212.099 90.9407C212.099 88.3018 211.756 86.4282 211.07 85.3199C210.384 84.2115 209.407 83.6574 208.141 83.6574C206.821 83.6574 205.686 84.1587 204.736 85.1615C203.786 86.1643 203.021 87.4046 202.441 88.8824C201.86 90.4129 201.438 92.049 201.174 93.7907C200.91 95.5324 200.778 97.1685 200.778 98.699C200.778 99.7546 200.857 100.757 201.016 101.707C201.174 102.71 201.438 103.581 201.807 104.32C202.177 105.059 202.678 105.639 203.311 106.062C203.945 106.537 204.736 106.774 205.686 106.774C206.636 106.774 207.639 106.484 208.695 105.903C209.75 105.323 210.779 104.188 211.782 102.499L221.52 102.499L215.82 129.02L183.52 129.02L185.816 118.095Z" fill="black"/>
<path d="M115.833 49.5833V128.75H131.667H139.583V81.25V49.5833H115.833Z" fill="black"/>
<path d="M290 128.75V49.5833H266.25V81.25V128.75H274.167H290Z" fill="black"/>
<path d="M100 263.333V342.5H115.833H123.75V203.958L115.833 263.333H100Z" fill="black"/>
<path d="M305.833 342.5V263.333H290L282.083 203.958V342.5H290H305.833Z" fill="black"/>
<path d="M131.667 128.75H115.833V49.5833H139.583V81.25M131.667 128.75L123.75 203.958M131.667 128.75H139.583V81.25M274.167 128.75H290V49.5833H266.25V81.25M274.167 128.75L282.083 203.958M274.167 128.75H266.25V81.25M115.833 342.5H100V263.333H115.833L123.75 203.958M115.833 342.5V366.25H139.583M115.833 342.5H123.75V203.958M290 342.5V366.25H266.25M290 342.5H305.833V263.333H290L282.083 203.958M290 342.5H282.083V203.958M139.583 366.25V390H266.25V366.25M139.583 366.25V358.333H266.25V366.25M139.583 81.25C144.861 62.7778 164.917 10 202.917 10C240.917 10 260.972 62.7778 266.25 81.25" stroke="black" stroke-width="15.8333"/>
<defs>
<linearGradient id="paint0_linear_4_25" x1="131.667" y1="207.917" x2="274.167" y2="207.917" gradientUnits="userSpaceOnUse">
<stop stop-color="#43AC11"/>
<stop offset="0.1875" stop-color="#8CFF56"/>
<stop offset="0.817708" stop-color="#8CFF56"/>
<stop offset="1" stop-color="#43AC11"/>
</linearGradient>
<linearGradient id="paint1_linear_4_25" x1="131.667" y1="207.917" x2="274.167" y2="207.917" gradientUnits="userSpaceOnUse">
<stop stop-color="#43AC11"/>
<stop offset="0.1875" stop-color="#8CFF56"/>
<stop offset="0.817708" stop-color="#8CFF56"/>
<stop offset="1" stop-color="#43AC11"/>
</linearGradient>
<linearGradient id="paint2_linear_4_25" x1="131.667" y1="207.917" x2="274.167" y2="207.917" gradientUnits="userSpaceOnUse">
<stop stop-color="#43AC11"/>
<stop offset="0.1875" stop-color="#8CFF56"/>
<stop offset="0.817708" stop-color="#8CFF56"/>
<stop offset="1" stop-color="#43AC11"/>
</linearGradient>
<linearGradient id="paint3_linear_4_25" x1="131.667" y1="207.917" x2="274.167" y2="207.917" gradientUnits="userSpaceOnUse">
<stop stop-color="#43AC11"/>
<stop offset="0.1875" stop-color="#8CFF56"/>
<stop offset="0.817708" stop-color="#8CFF56"/>
<stop offset="1" stop-color="#43AC11"/>
</linearGradient>
<linearGradient id="paint4_linear_4_25" x1="131.667" y1="207.917" x2="274.167" y2="207.917" gradientUnits="userSpaceOnUse">
<stop stop-color="#43AC11"/>
<stop offset="0.1875" stop-color="#8CFF56"/>
<stop offset="0.817708" stop-color="#8CFF56"/>
<stop offset="1" stop-color="#43AC11"/>
</linearGradient>
<linearGradient id="paint5_linear_4_25" x1="131.667" y1="207.917" x2="274.167" y2="207.917" gradientUnits="userSpaceOnUse">
<stop stop-color="#43AC11"/>
<stop offset="0.1875" stop-color="#8CFF56"/>
<stop offset="0.817708" stop-color="#8CFF56"/>
<stop offset="1" stop-color="#43AC11"/>
</linearGradient>
<linearGradient id="paint6_linear_4_25" x1="147.5" y1="374.167" x2="258.333" y2="374.167" gradientUnits="userSpaceOnUse">
<stop stop-color="#C3C3C3"/>
<stop offset="0.1875" stop-color="white"/>
<stop offset="0.817708" stop-color="white"/>
<stop offset="1" stop-color="#C3C3C3"/>
</linearGradient>
<radialGradient id="paint7_radial_4_25" cx="0" cy="0" r="1" gradientUnits="userSpaceOnUse" gradientTransform="translate(202.917 101.041) rotate(90) scale(83.125 63.3333)">
<stop offset="0.677083" stop-color="white"/>
<stop offset="1" stop-color="#D7D7D7"/>
</radialGradient>
<radialGradient id="paint8_radial_4_25" cx="0" cy="0" r="1" gradientUnits="userSpaceOnUse" gradientTransform="translate(202.915 104.999) rotate(90) scale(39.5833)">
<stop stop-color="#8CFF56"/>
<stop offset="1" stop-color="#43AC11"/>
</radialGradient>
</defs>
</svg>
